<svg width="20" height="20" viewBox="0 0 20 20" fill="none" xmlns="http://www.w3.org/2000/svg">
<path fill-rule="evenodd" clip-rule="evenodd" d="M17.1428 2.85715L14.1667 2.85715C13.6407 2.85715 13.2143 2.43075 13.2143 1.90477C13.2143 1.37878 13.6407 0.952387 14.1667 0.952387H17.2682C17.7024 0.952387 18.1402 1.1024 18.4806 1.40068C18.8251 1.70249 19.0476 2.14094 19.0476 2.62941V17.8468C19.0476 18.3353 18.8251 18.7737 18.4806 19.0755C18.1402 19.3738 17.7024 19.5238 17.2682 19.5238H3.20801C2.77375 19.5238 2.33601 19.3738 1.99557 19.0755C1.65109 18.7737 1.42856 18.3353 1.42856 17.8468L1.42856 14.2236C1.42856 13.6976 1.85495 13.2712 2.38094 13.2712C2.90692 13.2712 3.33332 13.6976 3.33332 14.2236L3.33332 17.6191H17.1428V2.85715Z" fill="#101D40"/>
<path fill-rule="evenodd" clip-rule="evenodd" d="M7.38094 2.38096C6.58824 2.38096 6.19046 2.90939 6.19046 3.28043V6.24339C6.19046 6.61443 6.58824 7.14286 7.38094 7.14286C8.17364 7.14286 8.57142 6.61443 8.57142 6.24339V3.28043C8.57142 2.90939 8.17364 2.38096 7.38094 2.38096ZM4.2857 3.28043C4.2857 1.60596 5.80671 0.476196 7.38094 0.476196C8.95517 0.476196 10.4762 1.60596 10.4762 3.28043V6.24339C10.4762 7.91786 8.95517 9.04762 7.38094 9.04762C5.80671 9.04762 4.2857 7.91786 4.2857 6.24339V3.28043Z" fill="#101D40"/>
<path fill-rule="evenodd" clip-rule="evenodd" d="M7.38095 11.8254C7.77544 11.8254 8.09523 12.1452 8.09523 12.5397V14.3175C8.09523 14.712 7.77544 15.0318 7.38095 15.0318C6.98646 15.0318 6.66666 14.712 6.66666 14.3175V12.5397C6.66666 12.1452 6.98646 11.8254 7.38095 11.8254Z" fill="#101D40"/>
<path fill-rule="evenodd" clip-rule="evenodd" d="M2.38094 7.14286C2.90693 7.14286 3.33332 7.56926 3.33332 8.09524C3.33332 8.99465 3.72085 9.87498 4.4404 10.5371C5.16259 11.2018 6.15784 11.5873 7.21049 11.5873C8.26313 11.5873 9.25838 11.2018 9.98057 10.5371C10.7001 9.87498 11.0876 8.99465 11.0876 8.09524C11.0876 7.56926 11.514 7.14286 12.04 7.14286C12.566 7.14286 12.9924 7.56926 12.9924 8.09524C12.9924 9.55331 12.3623 10.9339 11.2704 11.9387C10.1812 12.9411 8.71959 13.4921 7.21049 13.4921C5.70138 13.4921 4.2398 12.9411 3.15057 11.9387C2.05868 10.9339 1.42856 9.55331 1.42856 8.09524C1.42856 7.56926 1.85495 7.14286 2.38094 7.14286Z" fill="#101D40"/>
</svg>
