<svg width="20" height="20" viewBox="0 0 20 20" fill="none" xmlns="http://www.w3.org/2000/svg">
<path d="M16.25 1.5625H5.625C4.87908 1.5625 4.16371 1.85882 3.63626 2.38626C3.10882 2.91371 2.8125 3.62908 2.8125 4.375V17.5C2.8125 17.7486 2.91127 17.9871 3.08709 18.1629C3.2629 18.3387 3.50136 18.4375 3.75 18.4375H15C15.2486 18.4375 15.4871 18.3387 15.6629 18.1629C15.8387 17.9871 15.9375 17.7486 15.9375 17.5C15.9375 17.2514 15.8387 17.0129 15.6629 16.8371C15.4871 16.6613 15.2486 16.5625 15 16.5625H4.6875V16.25C4.6875 16.0014 4.78627 15.7629 4.96209 15.5871C5.1379 15.4113 5.37636 15.3125 5.625 15.3125H16.25C16.4986 15.3125 16.7371 15.2137 16.9129 15.0379C17.0887 14.8621 17.1875 14.6236 17.1875 14.375V2.5C17.1875 2.25136 17.0887 2.0129 16.9129 1.83709C16.7371 1.66127 16.4986 1.5625 16.25 1.5625ZM15.3125 13.4375H5.625C5.30558 13.4369 4.98844 13.4913 4.6875 13.5984V4.375C4.6875 4.12636 4.78627 3.8879 4.96209 3.71209C5.1379 3.53627 5.37636 3.4375 5.625 3.4375H15.3125V13.4375Z" fill="#101D40"/>
</svg>
