<svg width="20" height="20" viewBox="0 0 20 20" fill="none" xmlns="http://www.w3.org/2000/svg">
<path d="M0.937469 9.37511C0.938709 8.29805 1.36712 7.26546 2.12872 6.50386C2.89032 5.74226 3.92291 5.31385 4.99997 5.31261H8.09997C8.36872 5.29621 12.2093 5.00011 15.8703 1.9298C16.098 1.7386 16.3756 1.61636 16.6704 1.57742C16.9652 1.53848 17.2649 1.58447 17.5345 1.70998C17.8041 1.83549 18.0322 2.03532 18.1922 2.28599C18.3521 2.53666 18.4372 2.82776 18.4375 3.12511V15.6251C18.4393 15.9228 18.3553 16.2147 18.1954 16.4658C18.0354 16.7169 17.8065 16.9166 17.5359 17.0407C17.2665 17.1679 16.9662 17.2148 16.6708 17.1759C16.3754 17.137 16.0975 17.0138 15.8703 16.8212C13.9964 15.246 11.7671 14.1508 9.37497 13.6306V15.6775C9.37501 15.9346 9.31157 16.1878 9.19027 16.4146C9.06898 16.6414 8.89359 16.8347 8.67966 16.9775C8.64498 17.0008 8.60869 17.0217 8.57106 17.04L7.44294 17.5915C7.23442 17.7163 6.99966 17.7908 6.75732 17.809C6.51498 17.8272 6.27173 17.7886 6.04692 17.6963C5.82211 17.604 5.62193 17.4605 5.46229 17.2773C5.30265 17.094 5.18795 16.8761 5.12731 16.6407L4.26091 13.3736C3.32736 13.1998 2.48402 12.7048 1.87703 11.9746C1.27005 11.2443 0.93766 10.3247 0.937469 9.37511ZM16.5625 14.9712V3.78136C13.7367 5.97433 10.9242 6.75793 9.37497 7.03605V11.7189C10.9242 11.9939 13.7367 12.7775 16.5625 14.9712ZM6.8445 15.797L7.49997 15.4767V13.4376H6.21872L6.8445 15.797ZM4.99997 11.5626H7.49997V7.18761H4.99997C4.41981 7.18761 3.86341 7.41808 3.45317 7.82832C3.04294 8.23855 2.81247 8.79495 2.81247 9.37511C2.81247 9.95527 3.04294 10.5117 3.45317 10.9219C3.86341 11.3321 4.41981 11.5626 4.99997 11.5626Z" fill="#101D40"/>
</svg>
