<svg width="20" height="20" viewBox="0 0 20 20" fill="none" xmlns="http://www.w3.org/2000/svg">
<path d="M16.875 2.8125H10.9375V1.875C10.9375 1.62636 10.8387 1.3879 10.6629 1.21209C10.4871 1.03627 10.2486 0.9375 10 0.9375C9.75136 0.9375 9.5129 1.03627 9.33709 1.21209C9.16127 1.3879 9.0625 1.62636 9.0625 1.875V2.8125H3.125C2.7106 2.8125 2.31317 2.97712 2.02015 3.27015C1.72712 3.56317 1.5625 3.9606 1.5625 4.375V13.75C1.5625 14.1644 1.72712 14.5618 2.02015 14.8549C2.31317 15.1479 2.7106 15.3125 3.125 15.3125H5.54688L4.26562 16.9141C4.11022 17.1082 4.03831 17.3561 4.06571 17.6033C4.09311 17.8505 4.21757 18.0766 4.41172 18.232C4.60587 18.3874 4.85379 18.4593 5.10096 18.4319C5.34813 18.4045 5.57429 18.2801 5.72969 18.0859L7.94844 15.3125H12.0469L14.2656 18.0859C14.3426 18.1821 14.4377 18.2621 14.5456 18.3215C14.6535 18.3808 14.772 18.4184 14.8944 18.4319C15.0167 18.4455 15.1406 18.4348 15.2589 18.4005C15.3771 18.3662 15.4875 18.309 15.5836 18.232C15.6797 18.1551 15.7598 18.06 15.8191 17.9521C15.8785 17.8442 15.916 17.7257 15.9296 17.6033C15.9432 17.4809 15.9325 17.3571 15.8982 17.2388C15.8639 17.1205 15.8066 17.0102 15.7297 16.9141L14.4531 15.3125H16.875C17.2894 15.3125 17.6868 15.1479 17.9799 14.8549C18.2729 14.5618 18.4375 14.1644 18.4375 13.75V4.375C18.4375 3.9606 18.2729 3.56317 17.9799 3.27015C17.6868 2.97712 17.2894 2.8125 16.875 2.8125ZM16.5625 13.4375H3.4375V4.6875H16.5625V13.4375ZM8.125 9.375V11.25C8.125 11.4986 8.02623 11.7371 7.85041 11.9129C7.6746 12.0887 7.43614 12.1875 7.1875 12.1875C6.93886 12.1875 6.7004 12.0887 6.52459 11.9129C6.34877 11.7371 6.25 11.4986 6.25 11.25V9.375C6.25 9.12636 6.34877 8.8879 6.52459 8.71209C6.7004 8.53627 6.93886 8.4375 7.1875 8.4375C7.43614 8.4375 7.6746 8.53627 7.85041 8.71209C8.02623 8.8879 8.125 9.12636 8.125 9.375ZM10 7.1875C10.2486 7.1875 10.4871 7.28627 10.6629 7.46209C10.8387 7.6379 10.9375 7.87636 10.9375 8.125V11.25C10.9375 11.4986 10.8387 11.7371 10.6629 11.9129C10.4871 12.0887 10.2486 12.1875 10 12.1875C9.75136 12.1875 9.5129 12.0887 9.33709 11.9129C9.16127 11.7371 9.0625 11.4986 9.0625 11.25V8.125C9.0625 7.87636 9.16127 7.6379 9.33709 7.46209C9.5129 7.28627 9.75136 7.1875 10 7.1875ZM11.875 11.25V6.875C11.875 6.62636 11.9738 6.3879 12.1496 6.21209C12.3254 6.03627 12.5639 5.9375 12.8125 5.9375C13.0611 5.9375 13.2996 6.03627 13.4754 6.21209C13.6512 6.3879 13.75 6.62636 13.75 6.875V11.25C13.75 11.4986 13.6512 11.7371 13.4754 11.9129C13.2996 12.0887 13.0611 12.1875 12.8125 12.1875C12.5639 12.1875 12.3254 12.0887 12.1496 11.9129C11.9738 11.7371 11.875 11.4986 11.875 11.25Z" fill="#101D40"/>
</svg>
