<?xml version="1.0" encoding="UTF-8"?><svg id="Layer_2" xmlns="http://www.w3.org/2000/svg" viewBox="0 0 100 100.01"><defs><style>.cls-1{fill:#101d3f;}</style></defs><g id="Layer_1-2"><path class="cls-1" d="m100,34.44V3.31c0-1.83-1.48-3.31-3.31-3.31h-62.26C15.45,0,0,15.45,0,34.44c0,11.43,5.62,21.55,14.23,27.82H3.31c-1.83,0-3.31,1.48-3.31,3.31v31.13c0,1.83,1.48,3.31,3.31,3.31h62.26c18.99,0,34.43-15.45,34.43-34.44,0-11.43-5.62-21.55-14.23-27.82h10.92c1.83,0,3.31-1.48,3.31-3.31Zm-37.74,3.31v24.51h-24.52v-24.51h24.52Zm31.13,27.82c0,15.34-12.48,27.82-27.82,27.82H6.61v-24.52h58.95c1.83,0,3.31-1.48,3.31-3.31v-27.63c13.79,1.64,24.52,13.41,24.52,27.63h0Z"/></g></svg>