<svg width="20" height="20" viewBox="0 0 20 20" fill="none" xmlns="http://www.w3.org/2000/svg">
<path d="M14.0626 18.125C14.0626 18.3736 13.9638 18.6121 13.788 18.7879C13.6122 18.9637 13.3737 19.0625 13.1251 19.0625H6.87511C6.62647 19.0625 6.38801 18.9637 6.21219 18.7879C6.03638 18.6121 5.93761 18.3736 5.93761 18.125C5.93761 17.8764 6.03638 17.6379 6.21219 17.4621C6.38801 17.2863 6.62647 17.1875 6.87511 17.1875H13.1251C13.3737 17.1875 13.6122 17.2863 13.788 17.4621C13.9638 17.6379 14.0626 17.8764 14.0626 18.125ZM17.1876 8.125C17.1905 9.21421 16.9444 10.2897 16.4682 11.2693C15.992 12.2489 15.2983 13.1067 14.4399 13.7773C14.3237 13.8659 14.2293 13.9799 14.1639 14.1105C14.0985 14.2412 14.0638 14.3851 14.0626 14.5312V14.6875C14.0626 15.1019 13.898 15.4993 13.605 15.7924C13.3119 16.0854 12.9145 16.25 12.5001 16.25H7.50011C7.0857 16.25 6.68828 16.0854 6.39525 15.7924C6.10223 15.4993 5.93761 15.1019 5.93761 14.6875V14.5312C5.93744 14.3876 5.90423 14.2458 5.84057 14.117C5.7769 13.9882 5.68447 13.8757 5.57042 13.7883C4.71445 13.1216 4.02135 12.2689 3.54357 11.2948C3.06578 10.3206 2.81582 9.2506 2.81261 8.16562C2.79151 4.27266 5.93761 1.03125 9.82745 0.937499C10.7858 0.914472 11.739 1.08337 12.631 1.43425C13.5231 1.78513 14.3359 2.31091 15.0218 2.98064C15.7076 3.65037 16.2525 4.45051 16.6245 5.33399C16.9964 6.21746 17.1879 7.16642 17.1876 8.125ZM15.3126 8.125C15.3128 7.41637 15.1712 6.71486 14.8962 6.06177C14.6212 5.40868 14.2184 4.81721 13.7113 4.32217C13.2043 3.82714 12.6033 3.43855 11.9438 3.17928C11.2843 2.92001 10.5796 2.7953 9.8712 2.8125C6.99698 2.88125 4.67198 5.27734 4.68761 8.15469C4.69028 8.95659 4.87524 9.74738 5.22849 10.4673C5.58175 11.1872 6.09405 11.8174 6.72667 12.3102C7.04537 12.5561 7.30733 12.8679 7.49473 13.2242C7.68212 13.5805 7.79054 13.973 7.81261 14.375H12.1954C12.2179 13.9722 12.3265 13.579 12.5138 13.2217C12.7011 12.8644 12.9629 12.5515 13.2814 12.3039C13.9158 11.808 14.4286 11.1738 14.7806 10.4495C15.1326 9.7253 15.3146 8.93024 15.3126 8.125ZM13.7446 7.70937C13.6617 7.00789 13.3843 6.34355 12.9438 5.79136C12.5033 5.23917 11.9172 4.82111 11.2517 4.58437C11.019 4.50837 10.7659 4.52634 10.5464 4.63444C10.3268 4.74254 10.1582 4.9322 10.0767 5.16292C9.99505 5.39364 10.0069 5.64712 10.1097 5.86921C10.2124 6.09131 10.398 6.26442 10.6267 6.35156C10.9611 6.46879 11.2561 6.67725 11.4782 6.95338C11.7004 7.2295 11.8408 7.56228 11.8837 7.91406C11.911 8.16125 12.0355 8.38745 12.2296 8.5429C12.3257 8.61987 12.4361 8.67716 12.5543 8.71149C12.6726 8.74581 12.7965 8.75651 12.9189 8.74297C13.0413 8.72943 13.1598 8.69191 13.2677 8.63256C13.3756 8.57321 13.4707 8.49319 13.5477 8.39706C13.6247 8.30094 13.682 8.1906 13.7163 8.07233C13.7506 7.95407 13.7613 7.83021 13.7478 7.70781L13.7446 7.70937Z" fill="#101D40"/>
</svg>
