<svg width="20" height="20" viewBox="0 0 20 20" fill="none" xmlns="http://www.w3.org/2000/svg">
<path d="M18.4375 16.25C18.4375 16.4986 18.3387 16.7371 18.1629 16.9129C17.9871 17.0887 17.7486 17.1875 17.5 17.1875H2.5C2.25136 17.1875 2.0129 17.0887 1.83709 16.9129C1.66127 16.7371 1.5625 16.4986 1.5625 16.25V3.75C1.5625 3.50136 1.66127 3.2629 1.83709 3.08709C2.0129 2.91127 2.25136 2.8125 2.5 2.8125C2.74864 2.8125 2.9871 2.91127 3.16291 3.08709C3.33873 3.2629 3.4375 3.50136 3.4375 3.75V11.4844L6.83672 8.08438C6.92382 7.99698 7.02731 7.92763 7.14126 7.88031C7.25522 7.83299 7.37739 7.80864 7.50078 7.80864C7.62417 7.80864 7.74634 7.83299 7.8603 7.88031C7.97425 7.92763 8.07775 7.99698 8.16484 8.08438L10 9.92188L13.3594 6.5625H12.5C12.2514 6.5625 12.0129 6.46373 11.8371 6.28791C11.6613 6.1121 11.5625 5.87364 11.5625 5.625C11.5625 5.37636 11.6613 5.1379 11.8371 4.96209C12.0129 4.78627 12.2514 4.6875 12.5 4.6875H15.625C15.8736 4.6875 16.1121 4.78627 16.2879 4.96209C16.4637 5.1379 16.5625 5.37636 16.5625 5.625V8.75C16.5625 8.99864 16.4637 9.2371 16.2879 9.41291C16.1121 9.58873 15.8736 9.6875 15.625 9.6875C15.3764 9.6875 15.1379 9.58873 14.9621 9.41291C14.7863 9.2371 14.6875 8.99864 14.6875 8.75V7.89062L10.6633 11.9156C10.5762 12.003 10.4727 12.0724 10.3587 12.1197C10.2448 12.167 10.1226 12.1914 9.99922 12.1914C9.87583 12.1914 9.75366 12.167 9.6397 12.1197C9.52575 12.0724 9.42225 12.003 9.33516 11.9156L7.5 10.0781L3.4375 14.1406V15.3125H17.5C17.7486 15.3125 17.9871 15.4113 18.1629 15.5871C18.3387 15.7629 18.4375 16.0014 18.4375 16.25Z" fill="#101D40"/>
</svg>
