<svg fill="none" height="16" viewBox="0 0 16 16" width="16" xmlns="http://www.w3.org/2000/svg"><path d="m4.48 2.10526c0-.29313.10114-.57426.28118-.78154.18003-.20727.42421-.32372.67882-.32372h9.6c.2546 0 .4988.11645.6788.32372.1801.20728.2812.48841.2812.78154 0 .29314-.1011.57427-.2812.78154-.18.20728-.4242.32373-.6788.32373h-9.6c-.25461 0-.49879-.11645-.67882-.32373-.18004-.20727-.28118-.4884-.28118-.78154zm10.56 4.78948h-9.6c-.25461 0-.49879.11644-.67882.32372-.18004.20728-.28118.48841-.28118.78154s.10114.57426.28118.78154c.18003.20728.42421.32372.67882.32372h9.6c.2546 0 .4988-.11644.6788-.32372.1801-.20728.2812-.48841.2812-.78154s-.1011-.57426-.2812-.78154c-.18-.20728-.4242-.32372-.6788-.32372zm0 5.89476h-9.6c-.25461 0-.49879.1164-.67882.3237-.18004.2073-.28118.4884-.28118.7815 0 .2932.10114.5743.28118.7816.18003.2073.42421.3237.67882.3237h9.6c.2546 0 .4988-.1164.6788-.3237.1801-.2073.2812-.4884.2812-.7816 0-.2931-.1011-.5742-.2812-.7815-.18-.2073-.4242-.3237-.6788-.3237zm-12.8-11.7895h-1.28c-.254608 0-.498788.11645-.678822.32372-.180035.20728-.281178.48841-.281178.78154 0 .29314.101143.57427.281178.78154.180034.20728.424214.32373.678822.32373h1.28c.25461 0 .49879-.11645.67882-.32373.18004-.20727.28118-.4884.28118-.78154 0-.29313-.10114-.57426-.28118-.78154-.18003-.20727-.42421-.32372-.67882-.32372zm0 5.89474h-1.28c-.254608 0-.498788.11644-.678822.32372-.180035.20728-.281178.48841-.281178.78154s.101143.57426.281178.78154c.180034.20728.424214.32372.678822.32372h1.28c.25461 0 .49879-.11644.67882-.32372.18004-.20728.28118-.48841.28118-.78154s-.10114-.57426-.28118-.78154c-.18003-.20728-.42421-.32372-.67882-.32372zm0 5.89476h-1.28c-.254608 0-.498788.1164-.678822.3237-.180035.2073-.281178.4884-.281178.7815 0 .2932.101143.5743.281178.7816.180034.2073.424214.3237.678822.3237h1.28c.25461 0 .49879-.1164.67882-.3237.18004-.2073.28118-.4884.28118-.7816 0-.2931-.10114-.5742-.28118-.7815-.18003-.2073-.42421-.3237-.67882-.3237z" fill="#101d40"/></svg>