<svg width="20" height="20" viewBox="0 0 20 20" fill="none" xmlns="http://www.w3.org/2000/svg">
<path d="M19.4136 5.58671L16.9136 3.08671C16.7374 2.91059 16.4986 2.81165 16.2495 2.81165C16.0004 2.81165 15.7616 2.91059 15.5854 3.08671C15.4093 3.26283 15.3104 3.5017 15.3104 3.75077C15.3104 3.99984 15.4093 4.23871 15.5854 4.41483L16.4847 5.31249H15.0003C14.1898 5.33842 13.3927 5.52705 12.6565 5.86718C11.5245 6.38983 10.0933 7.5078 9.70263 9.8453C9.49248 11.1086 8.87607 11.9859 7.87216 12.4539C7.60342 12.5775 7.32136 12.6697 7.03154 12.7289C6.78551 11.9376 6.26189 11.2617 5.55709 10.8259C4.85229 10.39 4.01374 10.2234 3.19585 10.3567C2.37795 10.4901 1.63576 10.9144 1.10592 11.5516C0.576078 12.1888 0.294258 12.996 0.312343 13.8245C0.330428 14.653 0.647201 15.447 1.20434 16.0605C1.76148 16.674 2.52148 17.0655 3.34442 17.163C4.16736 17.2606 4.99783 17.0576 5.68294 16.5913C6.36805 16.1251 6.86168 15.4271 7.07294 14.6258C7.5902 14.5499 8.0948 14.4043 8.57294 14.193C9.70732 13.6891 11.144 12.5789 11.5487 10.1539C11.7503 8.94452 12.3675 8.08437 13.3839 7.5953C13.891 7.35539 14.4401 7.21686 15.0003 7.18749H16.4847L15.5847 8.08671C15.4085 8.26283 15.3096 8.5017 15.3096 8.75077C15.3096 8.99984 15.4085 9.23871 15.5847 9.41483C15.7608 9.59095 15.9997 9.6899 16.2487 9.6899C16.4978 9.6899 16.7367 9.59095 16.9128 9.41483L19.4128 6.91483C19.5002 6.82779 19.5696 6.72434 19.617 6.61041C19.6644 6.49648 19.6888 6.37432 19.6889 6.25093C19.689 6.12755 19.6647 6.00536 19.6175 5.89137C19.5702 5.77739 19.5009 5.67386 19.4136 5.58671ZM3.75029 15.3125C3.44125 15.3125 3.13916 15.2209 2.88221 15.0492C2.62526 14.8775 2.42499 14.6334 2.30673 14.3479C2.18846 14.0624 2.15752 13.7483 2.21781 13.4452C2.2781 13.1421 2.42691 12.8637 2.64543 12.6451C2.86395 12.4266 3.14236 12.2778 3.44546 12.2175C3.74855 12.1572 4.06272 12.1882 4.34823 12.3064C4.63374 12.4247 4.87777 12.625 5.04946 12.8819C5.22115 13.1389 5.31279 13.441 5.31279 13.75C5.31279 14.1644 5.14817 14.5618 4.85514 14.8548C4.56212 15.1479 4.16469 15.3125 3.75029 15.3125Z" fill="#101D40"/>
</svg>
